<svg version="1.1" viewBox="0.0 0.0 736.509186351706 151.43569553805773" fill="none" stroke="none" stroke-linecap="square" stroke-miterlimit="10" xmlns:xlink="http://www.w3.org/1999/xlink" xmlns="http://www.w3.org/2000/svg"><clipPath id="p.0"><path d="m0 0l736.5092 0l0 151.4357l-736.5092 0l0 -151.4357z" clip-rule="nonzero"/></clipPath><g clip-path="url(#p.0)"><path fill="#000000" fill-opacity="0.0" d="m0 0l736.5092 0l0 151.4357l-736.5092 0z" fill-rule="evenodd"/><path fill="#000000" fill-opacity="0.0" d="m0 0l736.50397 0l0 151.43307l-736.50397 0z" fill-rule="evenodd"/><path fill="#ffffff" d="m52.265625 122.11216q-9.984375 0 -17.984375 -4.671875q-8.0 -4.671875 -12.671875 -12.734375q-4.671875 -8.0625 -4.671875 -18.1875q0 -10.109375 4.28125 -18.109375q4.296875 -8.0 11.71875 -12.671875q7.421875 -4.671875 16.765625 -4.671875q7.546875 0 13.953125 3.140625q6.40625 3.140625 10.75 8.515625l0 -34.5625q0 -2.953125 1.859375 -4.734375q1.859375 -1.796875 4.671875 -1.796875q2.9375 0 4.734375 1.796875q1.796875 1.78125 1.796875 4.734375l0 58.359375q0 10.125 -4.671875 18.1875q-4.671875 8.0625 -12.609375 12.734375q-7.9375 4.671875 -17.921875 4.671875zm0 -11.53125q6.53125 0 11.640625 -3.125q5.125 -3.140625 8.0625 -8.640625q2.953125 -5.5 2.953125 -12.296875q0 -6.90625 -2.953125 -12.28125q-2.9375 -5.375 -8.0625 -8.515625q-5.109375 -3.140625 -11.640625 -3.140625q-6.40625 0 -11.59375 3.140625q-5.171875 3.140625 -8.1875 8.515625q-3.0 5.375 -3.0 12.28125q0 6.796875 3.0 12.296875q3.015625 5.5 8.1875 8.640625q5.1875 3.125 11.59375 3.125zm87.42151 11.53125q-9.34375 0 -16.765625 -4.671875q-7.421875 -4.671875 -11.71875 -12.671875q-4.28125 -8.0 -4.28125 -18.109375q0 -10.125 4.671875 -18.1875q4.671875 -8.0625 12.671875 -12.734375q8.0 -4.671875 17.984375 -4.671875q9.984375 0 17.921875 4.671875q7.9375 4.671875 12.609375 12.734375q4.671875 8.0625 4.671875 18.1875l-5.0 0q0 10.109375 -4.296875 18.109375q-4.28125 8.0 -11.703125 12.671875q-7.421875 4.671875 -16.765625 4.671875zm2.5625 -11.53125q6.53125 0 11.640625 -3.125q5.125 -3.140625 8.0625 -8.578125q2.953125 -5.4375 2.953125 -12.21875q0 -6.921875 -2.953125 -12.359375q-2.9375 -5.4375 -8.0625 -8.578125q-5.109375 -3.140625 -11.640625 -3.140625q-6.40625 0 -11.59375 3.140625q-5.171875 3.140625 -8.1875 8.578125q-3.0 5.4375 -3.0 12.359375q0 6.78125 3.0 12.21875q3.015625 5.4375 8.1875 8.578125q5.1875 3.125 11.59375 3.125zm28.671875 11.140625q-2.8125 0 -4.671875 -1.84375q-1.859375 -1.859375 -1.859375 -4.6875l0 -19.578125l2.4375 -13.5625l10.625 4.609375l0 28.53125q0 2.828125 -1.859375 4.6875q-1.859375 1.84375 -4.671875 1.84375zm85.118774 0q-2.8125153 0 -4.6718903 -1.84375q-1.859375 -1.859375 -1.859375 -4.6875l0 -31.484375q0 -7.296875 -2.6875 -11.90625q-2.6875 -4.609375 -7.234375 -6.84375q-4.546875 -2.234375 -10.421875 -2.234375q-5.375 0 -9.734375 2.171875q-4.34375 2.171875 -6.90625 5.828125q-2.5625 3.640625 -2.5625 8.375l-8.0625 0q0 -8.0625 3.890625 -14.390625q3.90625 -6.34375 10.6875 -10.046875q6.796875 -3.71875 15.25 -3.71875q8.828125 0 15.796875 3.78125q6.984375 3.765625 11.01564 11.0625q4.03125 7.296875 4.03125 17.921875l0 31.484375q0 2.828125 -1.859375 4.6875q-1.859375 1.84375 -4.671875 1.84375zm-52.60939 0q-2.8125 0 -4.671875 -1.84375q-1.859375 -1.859375 -1.859375 -4.6875l0 -57.078125q0 -2.953125 1.859375 -4.734375q1.859375 -1.796875 4.671875 -1.796875q2.9375 0 4.734375 1.796875q1.796875 1.78125 1.796875 4.734375l0 57.078125q0 2.828125 -1.796875 4.6875q-1.796875 1.84375 -4.734375 1.84375zm87.046036 -43.90625q0 -7.671875 3.765625 -13.75q3.78125 -6.078125 10.171875 -9.65625q6.40625 -3.59375 14.09375 -3.59375q7.671875 0 11.453125 2.5q3.78125 2.484375 2.875 5.9375q-0.375 1.796875 -1.46875 2.765625q-1.09375 0.953125 -2.5 1.21875q-1.40625 0.25 -3.0625 -0.140625q-8.203125 -1.65625 -14.734375 -0.25q-6.515625 1.40625 -10.296875 5.25q-3.78125 3.84375 -3.78125 9.71875l-6.515625 0zm0.125 43.78125q-3.078125 0 -4.75 -1.59375q-1.65625 -1.609375 -1.65625 -4.8125l0 -57.203125q0 -3.078125 1.65625 -4.734375q1.671875 -1.671875 4.75 -1.671875q3.203125 0 4.796875 1.609375q1.59375 1.59375 1.59375 4.796875l0 57.203125q0 3.078125 -1.59375 4.75q-1.59375 1.65625 -4.796875 1.65625zm83.58801 0.515625q-10.625 0 -18.890625 -4.546875q-8.25 -4.546875 -12.921875 -12.546875q-4.671875 -8.0 -4.671875 -18.359375q0 -10.5 4.40625 -18.5q4.421875 -8.0 12.234375 -12.546875q7.8125 -4.546875 17.921875 -4.546875q9.984375 0 17.140625 4.421875q7.171875 4.40625 10.953125 12.15625q3.78125 7.75 3.78125 17.859375q0 2.4375 -1.671875 4.03125q-1.65625 1.59375 -4.21875 1.59375l-51.59375 0l0 -10.234375l51.203125 0l-5.25 3.578125q-0.125 -6.390625 -2.5625 -11.4375q-2.421875 -5.0625 -6.90625 -8.0q-4.484375 -2.953125 -10.875 -2.953125q-7.296875 0 -12.484375 3.203125q-5.1875 3.1875 -7.875 8.765625q-2.6875 5.5625 -2.6875 12.609375q0 7.03125 3.203125 12.546875q3.203125 5.5 8.828125 8.703125q5.640625 3.1875 12.9375 3.1875q3.96875 0 8.125 -1.46875q4.15625 -1.46875 6.71875 -3.390625q1.921875 -1.40625 4.15625 -1.46875q2.234375 -0.0625 3.90625 1.34375q2.171875 1.921875 2.296875 4.234375q0.140625 2.296875 -2.046875 3.953125q-4.34375 3.453125 -10.8125 5.640625q-6.46875 2.171875 -12.34375 2.171875zm73.20926 0q-9.34375 0 -16.765625 -4.671875q-7.421875 -4.671875 -11.71875 -12.671875q-4.28125 -8.0 -4.28125 -18.109375q0 -10.125 4.671875 -18.1875q4.671875 -8.0625 12.671875 -12.734375q8.0 -4.671875 17.984375 -4.671875q9.984375 0 17.921875 4.671875q7.9375 4.671875 12.609375 12.734375q4.671875 8.0625 4.671875 18.1875l-5.0 0q0 10.109375 -4.296875 18.109375q-4.28125 8.0 -11.703125 12.671875q-7.421875 4.671875 -16.765625 4.671875zm2.5625 -11.53125q6.53125 0 11.640625 -3.125q5.125 -3.140625 8.0625 -8.578125q2.953125 -5.4375 2.953125 -12.21875q0 -6.921875 -2.953125 -12.359375q-2.9375 -5.4375 -8.0625 -8.578125q-5.109375 -3.140625 -11.640625 -3.140625q-6.40625 0 -11.59375 3.140625q-5.171875 3.140625 -8.1875 8.578125q-3.0 5.4375 -3.0 12.359375q0 6.78125 3.0 12.21875q3.015625 5.4375 8.1875 8.578125q5.1875 3.125 11.59375 3.125zm28.671875 11.140625q-2.8125 0 -4.671875 -1.84375q-1.859375 -1.859375 -1.859375 -4.6875l0 -19.578125l2.4375 -13.5625l10.625 4.609375l0 28.53125q0 2.828125 -1.859375 4.6875q-1.859375 1.84375 -4.671875 1.84375zm57.72812 0.390625q-9.984375 0 -17.984375 -4.671875q-8.0 -4.671875 -12.671875 -12.734375q-4.671875 -8.0625 -4.671875 -18.1875q0 -10.109375 4.28125 -18.109375q4.296875 -8.0 11.71875 -12.671875q7.421875 -4.671875 16.765625 -4.671875q7.546875 0 13.953125 3.140625q6.40625 3.140625 10.75 8.515625l0 -34.5625q0 -2.953125 1.859375 -4.734375q1.859375 -1.796875 4.671875 -1.796875q2.9375 0 4.734375 1.796875q1.796875 1.78125 1.796875 4.734375l0 58.359375q0 10.125 -4.671875 18.1875q-4.671875 8.0625 -12.609375 12.734375q-7.9375 4.671875 -17.921875 4.671875zm0 -11.53125q6.53125 0 11.640625 -3.125q5.125 -3.140625 8.0625 -8.640625q2.953125 -5.5 2.953125 -12.296875q0 -6.90625 -2.953125 -12.28125q-2.9375 -5.375 -8.0625 -8.515625q-5.109375 -3.140625 -11.640625 -3.140625q-6.40625 0 -11.59375 3.140625q-5.171875 3.140625 -8.1875 8.515625q-3.0 5.375 -3.0 12.28125q0 6.796875 3.0 12.296875q3.015625 5.5 8.1875 8.640625q5.1875 3.125 11.59375 3.125zm91.14026 11.53125q-10.625 0 -18.890625 -4.546875q-8.25 -4.546875 -12.921875 -12.546875q-4.671875 -8.0 -4.671875 -18.359375q0 -10.5 4.40625 -18.5q4.421875 -8.0 12.234375 -12.546875q7.8125 -4.546875 17.921875 -4.546875q9.984375 0 17.140625 4.421875q7.171875 4.40625 10.953125 12.15625q3.78125 7.75 3.78125 17.859375q0 2.4375 -1.671875 4.03125q-1.65625 1.59375 -4.21875 1.59375l-51.59375 0l0 -10.234375l51.203125 0l-5.25 3.578125q-0.125 -6.390625 -2.5625 -11.4375q-2.421875 -5.0625 -6.90625 -8.0q-4.484375 -2.953125 -10.875 -2.953125q-7.296875 0 -12.484375 3.203125q-5.1875 3.1875 -7.875 8.765625q-2.6875 5.5625 -2.6875 12.609375q0 7.03125 3.203125 12.546875q3.203125 5.5 8.828125 8.703125q5.640625 3.1875 12.9375 3.1875q3.96875 0 8.125 -1.46875q4.15625 -1.46875 6.71875 -3.390625q1.921875 -1.40625 4.15625 -1.46875q2.234375 -0.0625 3.90625 1.34375q2.171875 1.921875 2.296875 4.234375q0.140625 2.296875 -2.046875 3.953125q-4.34375 3.453125 -10.8125 5.640625q-6.46875 2.171875 -12.34375 2.171875z" fill-rule="nonzero"/><path fill="#ffffff" d="m680.365 77.815285q0 -7.671875 3.765625 -13.75q3.78125 -6.078125 10.171875 -9.65625q6.40625 -3.59375 14.09375 -3.59375q7.671875 0 11.453125 2.5q3.78125 2.484375 2.875 5.9375q-0.375 1.796875 -1.46875 2.765625q-1.09375 0.953125 -2.5 1.21875q-1.40625 0.25 -3.0625 -0.140625q-8.203125 -1.65625 -14.734375 -0.25q-6.515625 1.40625 -10.296875 5.25q-3.78125 3.84375 -3.78125 9.71875l-6.515625 0zm0.125 43.78125q-3.078125 0 -4.75 -1.59375q-1.65625 -1.609375 -1.65625 -4.8125l0 -57.203125q0 -3.078125 1.65625 -4.734375q1.671875 -1.671875 4.75 -1.671875q3.203125 0 4.796875 1.609375q1.59375 1.59375 1.59375 4.796875l0 57.203125q0 3.078125 -1.59375 4.75q-1.59375 1.65625 -4.796875 1.65625z" fill-rule="nonzero"/></g></svg>