<svg version="1.1" viewBox="0.0 0.0 643.0209973753281 643.0209973753281" fill="none" stroke="none" stroke-linecap="square" stroke-miterlimit="10" xmlns:xlink="http://www.w3.org/1999/xlink" xmlns="http://www.w3.org/2000/svg"><clipPath id="p.0"><path d="m0 0l643.021 0l0 643.021l-643.021 0l0 -643.021z" clip-rule="nonzero"/></clipPath><g clip-path="url(#p.0)"><path fill="#000000" fill-opacity="0.0" d="m0 0l643.021 0l0 643.021l-643.021 0z" fill-rule="evenodd"/><path fill="#ffffff" d="m19.003723 386.99377l0 0c0 -27.84674 22.57423 -50.42096 50.42096 -50.42096l201.67776 0l0 0c13.372467 0 26.197235 5.312195 35.653015 14.767944c9.4557495 9.4557495 14.767944 22.280518 14.767944 35.653015l0 201.67773c0 27.84674 -22.574219 50.42096 -50.42096 50.42096l-201.67776 0c-27.84673 0 -50.42096 -22.574219 -50.42096 -50.42096z" fill-rule="evenodd"/><path fill="#000000" d="m169.83418 468.1611c4.2445526 0 7.5957794 0.59472656 10.053665 1.7841492c2.457901 1.1894226 4.259369 3.225891 5.4044037 6.109375c1.1549072 2.8744507 1.7323761 6.911316 1.7323761 12.110596c0 5.1542053 -0.6218872 9.14151 -1.8656311 11.961914c-1.2338867 2.820404 -3.079773 4.77124 -5.537674 5.852539c-2.4578857 1.0812988 -5.720276 1.6219788 -9.78714 1.6219788l-12.274658 0l0 -39.44055zm-22.195068 -7.069031l0 53.48398l23.749756 0c8.795105 0 15.250778 -2.1175537 19.367004 -6.352661c4.126114 -4.2351074 6.189163 -10.921173 6.189163 -20.058167c0 -9.524506 -2.0630493 -16.417816 -6.189163 -20.679932c-4.116226 -4.262146 -10.571899 -6.393219 -19.367004 -6.393219z" fill-rule="evenodd"/><path stroke="#000000" stroke-width="2.0" stroke-linejoin="round" stroke-linecap="butt" d="m169.83418 468.1611c4.2445526 0 7.5957794 0.59472656 10.053665 1.7841492c2.457901 1.1894226 4.259369 3.225891 5.4044037 6.109375c1.1549072 2.8744507 1.7323761 6.911316 1.7323761 12.110596c0 5.1542053 -0.6218872 9.14151 -1.8656311 11.961914c-1.2338867 2.820404 -3.079773 4.77124 -5.537674 5.852539c-2.4578857 1.0812988 -5.720276 1.6219788 -9.78714 1.6219788l-12.274658 0l0 -39.44055zm-22.195068 -7.069031l0 53.48398l23.749756 0c8.795105 0 15.250778 -2.1175537 19.367004 -6.352661c4.126114 -4.2351074 6.189163 -10.921173 6.189163 -20.058167c0 -9.524506 -2.0630493 -16.417816 -6.189163 -20.679932c-4.116226 -4.262146 -10.571899 -6.393219 -19.367004 -6.393219z" fill-rule="evenodd"/><path fill="#ffffff" d="m321.49783 54.348057l0 0c0 -27.846727 22.57425 -50.420956 50.42096 -50.420956l201.67776 0l0 0c13.372498 0 26.197266 5.312193 35.653015 14.767956c9.4557495 9.455765 14.767944 22.28053 14.767944 35.653l0 201.67776c0 27.84674 -22.574219 50.42096 -50.42096 50.42096l-201.67776 0c-27.84671 0 -50.42096 -22.574219 -50.42096 -50.42096z" fill-rule="evenodd"/><path fill="#000000" d="m475.05396 135.51524c7.0178833 0 10.526825 3.3475342 10.526825 10.042633c0 6.7491455 -3.8066406 10.1237335 -11.419922 10.1237335l-14.216339 0l0 -20.166367zm-24.918854 -7.069046l0 53.48413l9.809418 0l0 -18.936386l10.878204 0c2.0985413 0 3.626068 0.29286194 4.582611 0.87857056c0.9663086 0.5766907 1.8105774 1.6129456 2.5328674 3.1087494l7.1008606 14.949066l10.072937 0l-7.291168 -15.530273c-0.6539612 -1.4958038 -1.2835083 -2.6446838 -1.8886719 -3.4466553c-0.59539795 -0.80197144 -1.4055481 -1.5363617 -2.4303894 -2.2031708c3.7871094 -1.0452576 6.7153015 -2.883484 8.784546 -5.5146637c2.0692444 -2.6311798 3.1038818 -5.857071 3.1038818 -9.677689c0 -5.4245605 -1.5324402 -9.632645 -4.5972595 -12.624252c-3.0550842 -2.991623 -7.7304077 -4.4874268 -14.026001 -4.4874268z" fill-rule="evenodd"/><path stroke="#000000" stroke-width="2.0" stroke-linejoin="round" stroke-linecap="butt" d="m475.05396 135.51524c7.0178833 0 10.526825 3.3475342 10.526825 10.042633c0 6.7491455 -3.8066406 10.1237335 -11.419922 10.1237335l-14.216339 0l0 -20.166367zm-24.918854 -7.069046l0 53.48413l9.809418 0l0 -18.936386l10.878204 0c2.0985413 0 3.626068 0.29286194 4.582611 0.87857056c0.9663086 0.5766907 1.8105774 1.6129456 2.5328674 3.1087494l7.1008606 14.949066l10.072937 0l-7.291168 -15.530273c-0.6539612 -1.4958038 -1.2835083 -2.6446838 -1.8886719 -3.4466553c-0.59539795 -0.80197144 -1.4055481 -1.5363617 -2.4303894 -2.2031708c3.7871094 -1.0452576 6.7153015 -2.883484 8.784546 -5.5146637c2.0692444 -2.6311798 3.1038818 -5.857071 3.1038818 -9.677689c0 -5.4245605 -1.5324402 -9.632645 -4.5972595 -12.624252c-3.0550842 -2.991623 -7.7304077 -4.4874268 -14.026001 -4.4874268z" fill-rule="evenodd"/></g></svg>