<svg version="1.1" viewBox="0.0 0.0 311.8057742782152 311.8057742782152" fill="none" stroke="none" stroke-linecap="square" stroke-miterlimit="10" xmlns:xlink="http://www.w3.org/1999/xlink" xmlns="http://www.w3.org/2000/svg"><clipPath id="p.0"><path d="m0 0l311.8058 0l0 311.8058l-311.8058 0l0 -311.8058z" clip-rule="nonzero"/></clipPath><g clip-path="url(#p.0)"><path fill="#000000" fill-opacity="0.0" d="m0 0l311.8058 0l0 311.8058l-311.8058 0z" fill-rule="evenodd"/><path fill="#ffffff" d="m4.644143 55.064625l0 0c0 -27.846724 22.57423 -50.420956 50.420956 -50.420956l201.67776 0l0 0c13.372467 0 26.197235 5.3121924 35.653015 14.767956c9.4557495 9.455765 14.767944 22.280533 14.767944 35.653l0 201.67778c0 27.84671 -22.574219 50.42096 -50.42096 50.42096l-201.67776 0c-27.846724 0 -50.420956 -22.57425 -50.420956 -50.42096z" fill-rule="evenodd"/><path fill="#000000" d="m212.63417 123.37371c5.810959 0 9.855392 1.2165222 12.1332855 3.649582c2.293396 2.433052 2.8357544 6.259453 1.6270752 11.47921c-1.2396698 5.304611 -3.7035217 9.131012 -7.3915405 11.479202c-3.688034 2.3340302 -8.863663 3.5010376 -15.526901 3.5010376l-20.570816 0l7.0196533 -30.109032zm-98.68984 23.34034c5.1291428 0 9.05735 1.0892181 11.784637 3.2676544c2.742775 2.1642761 3.6182938 5.3753357 2.6265488 9.633194l-6.1828613 26.607986c-4.1993866 2.0794067 -9.491241 3.11911 -15.875557 3.11911c-7.716957 0 -13.094032 -1.6479645 -16.131233 -4.9439087c-3.021698 -3.3100739 -3.6647797 -8.69957 -1.9292374 -16.168488c1.5495911 -6.6909027 4.4783173 -11.946014 8.786179 -15.765335c4.3233566 -3.8334808 9.96386 -5.7502136 16.921524 -5.7502136zm65.9625 -36.11387c-1.9060059 0 -3.3626099 0.3960724 -4.369858 1.1882324c-0.99172974 0.77801514 -1.6735535 1.9874649 -2.045456 3.6283646l-18.432373 79.14497c-0.35639954 1.556015 -0.22468567 2.7301178 0.3951416 3.5222626c0.6353302 0.77801514 1.9060059 1.1670227 3.8119965 1.1670227l7.554245 0c1.9989777 0 3.494339 -0.38900757 4.4860687 -1.1670227c1.0072327 -0.79216003 1.6890564 -1.9662476 2.045456 -3.5222626l6.647751 -28.56009l22.988174 0l7.252075 30.89412c0.23243713 0.96191406 0.59658813 1.598465 1.0924683 1.909668c0.51135254 0.2970581 1.3868866 0.44558716 2.6265564 0.44558716l11.71489 0c1.7045593 0 2.711792 -0.6506958 3.0217133 -1.9521027c0.0929718 -0.43850708 0.0619812 -0.9194641 -0.09298706 -1.4428558l-8.391022 -32.061142c6.5082703 -2.1784363 11.831116 -5.4177856 15.968521 -9.718063c4.1529083 -4.300293 6.942169 -9.491745 8.367798 -15.574371c2.1384277 -9.208832 0.86776733 -16.161423 -3.8119965 -20.85778c-4.664276 -4.6963654 -12.520691 -7.0445404 -23.569275 -7.0445404zm-34.699524 0c-1.9059906 0 -3.385849 0.3960724 -4.439575 1.1882324c-1.0382233 0.77801514 -1.7432861 1.9874649 -2.1151886 3.6283646l-5.927185 25.419754c-3.5330658 -4.0739594 -10.29702 -6.1109314 -20.291878 -6.1109314c-7.035141 0 -13.473686 1.3933563 -19.315643 4.1800385c-5.826462 2.7725525 -10.699928 6.655548 -14.620384 11.648956c-3.9204636 4.9934235 -6.6399994 10.750702 -8.158592 17.27185c-5.191124 22.25113 5.7334824 33.376694 32.773834 33.376694c6.554764 0 13.070793 -0.79922485 19.54808 -2.3976898c6.4772873 -1.6126099 11.800133 -3.635437 15.968529 -6.0684967l18.013992 -77.320175c0.3718872 -1.6408997 0.22468567 -2.8503494 -0.44163513 -3.6283646c-0.66633606 -0.79216003 -1.9524841 -1.1882324 -3.85849 -1.1882324z" fill-rule="evenodd"/><path stroke="#000000" stroke-width="2.0" stroke-linejoin="round" stroke-linecap="butt" d="m212.63417 123.37371c5.810959 0 9.855392 1.2165222 12.1332855 3.649582c2.293396 2.433052 2.8357544 6.259453 1.6270752 11.47921c-1.2396698 5.304611 -3.7035217 9.131012 -7.3915405 11.479202c-3.688034 2.3340302 -8.863663 3.5010376 -15.526901 3.5010376l-20.570816 0l7.0196533 -30.109032zm-98.68984 23.34034c5.1291428 0 9.05735 1.0892181 11.784637 3.2676544c2.742775 2.1642761 3.6182938 5.3753357 2.6265488 9.633194l-6.1828613 26.607986c-4.1993866 2.0794067 -9.491241 3.11911 -15.875557 3.11911c-7.716957 0 -13.094032 -1.6479645 -16.131233 -4.9439087c-3.021698 -3.3100739 -3.6647797 -8.69957 -1.9292374 -16.168488c1.5495911 -6.6909027 4.4783173 -11.946014 8.786179 -15.765335c4.3233566 -3.8334808 9.96386 -5.7502136 16.921524 -5.7502136zm65.9625 -36.11387c-1.9060059 0 -3.3626099 0.3960724 -4.369858 1.1882324c-0.99172974 0.77801514 -1.6735535 1.9874649 -2.045456 3.6283646l-18.432373 79.14497c-0.35639954 1.556015 -0.22468567 2.7301178 0.3951416 3.5222626c0.6353302 0.77801514 1.9060059 1.1670227 3.8119965 1.1670227l7.554245 0c1.9989777 0 3.494339 -0.38900757 4.4860687 -1.1670227c1.0072327 -0.79216003 1.6890564 -1.9662476 2.045456 -3.5222626l6.647751 -28.56009l22.988174 0l7.252075 30.89412c0.23243713 0.96191406 0.59658813 1.598465 1.0924683 1.909668c0.51135254 0.2970581 1.3868866 0.44558716 2.6265564 0.44558716l11.71489 0c1.7045593 0 2.711792 -0.6506958 3.0217133 -1.9521027c0.0929718 -0.43850708 0.0619812 -0.9194641 -0.09298706 -1.4428558l-8.391022 -32.061142c6.5082703 -2.1784363 11.831116 -5.4177856 15.968521 -9.718063c4.1529083 -4.300293 6.942169 -9.491745 8.367798 -15.574371c2.1384277 -9.208832 0.86776733 -16.161423 -3.8119965 -20.85778c-4.664276 -4.6963654 -12.520691 -7.0445404 -23.569275 -7.0445404zm-34.699524 0c-1.9059906 0 -3.385849 0.3960724 -4.439575 1.1882324c-1.0382233 0.77801514 -1.7432861 1.9874649 -2.1151886 3.6283646l-5.927185 25.419754c-3.5330658 -4.0739594 -10.29702 -6.1109314 -20.291878 -6.1109314c-7.035141 0 -13.473686 1.3933563 -19.315643 4.1800385c-5.826462 2.7725525 -10.699928 6.655548 -14.620384 11.648956c-3.9204636 4.9934235 -6.6399994 10.750702 -8.158592 17.27185c-5.191124 22.25113 5.7334824 33.376694 32.773834 33.376694c6.554764 0 13.070793 -0.79922485 19.54808 -2.3976898c6.4772873 -1.6126099 11.800133 -3.635437 15.968529 -6.0684967l18.013992 -77.320175c0.3718872 -1.6408997 0.22468567 -2.8503494 -0.44163513 -3.6283646c-0.66633606 -0.79216003 -1.9524841 -1.1882324 -3.85849 -1.1882324z" fill-rule="evenodd"/></g></svg>