<svg version="1.1" viewBox="0.0 0.0 900.0 900.0" fill="none" stroke="none" stroke-linecap="square" stroke-miterlimit="10" xmlns:xlink="http://www.w3.org/1999/xlink" xmlns="http://www.w3.org/2000/svg"><clipPath id="p.0"><path d="m0 0l900.0 0l0 900.0l-900.0 0l0 -900.0z" clip-rule="nonzero"/></clipPath><g clip-path="url(#p.0)"><path fill="#000000" fill-opacity="0.0" d="m0 0l900.0 0l0 900.0l-900.0 0z" fill-rule="evenodd"/><path fill="#04223e" d="m13.257217 158.84018l0 0c0 -80.40325 65.17971 -145.58296 145.58296 -145.58296l582.31433 0l0 0c38.611023 0 75.640625 15.338161 102.94275 42.640263c27.302063 27.302105 42.64026 64.331696 42.64026 102.9427l0 582.31433c0 80.40326 -65.17975 145.58301 -145.58301 145.58301l-582.31433 0c-80.40325 0 -145.58296 -65.17975 -145.58296 -145.58301z" fill-rule="evenodd"/><path stroke="#ffffff" stroke-width="24.0" stroke-linejoin="round" stroke-linecap="butt" d="m13.257217 158.84018l0 0c0 -80.40325 65.17971 -145.58296 145.58296 -145.58296l582.31433 0l0 0c38.611023 0 75.640625 15.338161 102.94275 42.640263c27.302063 27.302105 42.64026 64.331696 42.64026 102.9427l0 582.31433c0 80.40326 -65.17975 145.58301 -145.58301 145.58301l-582.31433 0c-80.40325 0 -145.58296 -65.17975 -145.58296 -145.58301z" fill-rule="evenodd"/><g filter="url(#shadowFilter-p.1)"><use xlink:href="#p.1" transform="matrix(1.0 0.0 0.0 1.0 9.32575151738845 7.551844959809711)"/></g><defs><filter id="shadowFilter-p.1" filterUnits="userSpaceOnUse"><feGaussianBlur in="SourceAlpha" stdDeviation="2.0" result="blur"/><feComponentTransfer in="blur" color-interpolation-filters="sRGB"><feFuncR type="linear" slope="0" intercept="0.0"/><feFuncG type="linear" slope="0" intercept="0.0"/><feFuncB type="linear" slope="0" intercept="0.0"/><feFuncA type="linear" slope="0.5" intercept="0"/></feComponentTransfer></filter></defs><g id="p.1"><path fill="#ffffff" d="m147.48141 515.4728l0 0c0 -27.84674 22.574234 -50.42096 50.42096 -50.42096l201.67776 0l0 0c13.372467 0 26.197235 5.312195 35.653015 14.767944c9.4557495 9.4557495 14.767944 22.280518 14.767944 35.653015l0 201.67773c0 27.84674 -22.574219 50.42096 -50.42096 50.42096l-201.67776 0c-27.846725 0 -50.42096 -22.574219 -50.42096 -50.42096z" fill-rule="evenodd"/><path stroke="#000000" stroke-width="2.0" stroke-linejoin="round" stroke-linecap="butt" d="m147.48141 515.4728l0 0c0 -27.84674 22.574234 -50.42096 50.42096 -50.42096l201.67776 0l0 0c13.372467 0 26.197235 5.312195 35.653015 14.767944c9.4557495 9.4557495 14.767944 22.280518 14.767944 35.653015l0 201.67773c0 27.84674 -22.574219 50.42096 -50.42096 50.42096l-201.67776 0c-27.846725 0 -50.42096 -22.574219 -50.42096 -50.42096z" fill-rule="evenodd"/></g><path fill="#000000" d="m293.74222 595.07007c5.804199 0 10.231354 1.6895752 13.281525 5.0686035c3.0501404 3.3790894 4.575226 8.271973 4.575226 14.678711l0 3.2844849c-0.05923462 6.298584 -1.6682129 11.132874 -4.826935 14.502991c-3.1488647 3.361023 -7.6698303 5.041565 -13.562836 5.041565l-7.329254 0l0 -42.576355zm-19.100494 -8.271973l0 59.039185l18.611877 0c5.8338013 0 11.006226 -1.1488647 15.517303 -3.4466553c4.5209656 -2.2977905 8.000488 -5.5687256 10.43866 -9.812805c2.447998 -4.2441406 3.6720276 -9.1640625 3.6720276 -14.759827l0 -2.960083c0 -5.5146484 -1.2141418 -10.407532 -3.6424255 -14.67865c-2.4282837 -4.271179 -5.8584595 -7.569153 -10.290588 -9.893921c-4.4222107 -2.324829 -9.490997 -3.4872437 -15.20636 -3.4872437z" fill-rule="evenodd"/><path stroke="#000000" stroke-width="2.0" stroke-linejoin="round" stroke-linecap="butt" d="m293.74222 595.07007c5.804199 0 10.231354 1.6895752 13.281525 5.0686035c3.0501404 3.3790894 4.575226 8.271973 4.575226 14.678711l0 3.2844849c-0.05923462 6.298584 -1.6682129 11.132874 -4.826935 14.502991c-3.1488647 3.361023 -7.6698303 5.041565 -13.562836 5.041565l-7.329254 0l0 -42.576355zm-19.100494 -8.271973l0 59.039185l18.611877 0c5.8338013 0 11.006226 -1.1488647 15.517303 -3.4466553c4.5209656 -2.2977905 8.000488 -5.5687256 10.43866 -9.812805c2.447998 -4.2441406 3.6720276 -9.1640625 3.6720276 -14.759827l0 -2.960083c0 -5.5146484 -1.2141418 -10.407532 -3.6424255 -14.67865c-2.4282837 -4.271179 -5.8584595 -7.569153 -10.290588 -9.893921c-4.4222107 -2.324829 -9.490997 -3.4872437 -15.20636 -3.4872437z" fill-rule="evenodd"/><g filter="url(#shadowFilter-p.2)"><use xlink:href="#p.2" transform="matrix(1.0 0.0 0.0 1.0 9.32575151738845 7.551844959809711)"/></g><defs><filter id="shadowFilter-p.2" filterUnits="userSpaceOnUse"><feGaussianBlur in="SourceAlpha" stdDeviation="2.0" result="blur"/><feComponentTransfer in="blur" color-interpolation-filters="sRGB"><feFuncR type="linear" slope="0" intercept="0.0"/><feFuncG type="linear" slope="0" intercept="0.0"/><feFuncB type="linear" slope="0" intercept="0.0"/><feFuncA type="linear" slope="0.5" intercept="0"/></feComponentTransfer></filter></defs><g id="p.2"><path fill="#ffffff" d="m449.97552 182.82706l0 0c0 -27.846725 22.57425 -50.42096 50.42096 -50.42096l201.6778 0l0 0c13.372437 0 26.197205 5.312195 35.652954 14.76796c9.455811 9.455765 14.768005 22.280533 14.768005 35.653l0 201.67776c0 27.84674 -22.57428 50.42096 -50.42096 50.42096l-201.6778 0c-27.84671 0 -50.42096 -22.574219 -50.42096 -50.42096z" fill-rule="evenodd"/><path stroke="#000000" stroke-width="2.0" stroke-linejoin="round" stroke-linecap="butt" d="m449.97552 182.82706l0 0c0 -27.846725 22.57425 -50.42096 50.42096 -50.42096l201.6778 0l0 0c13.372437 0 26.197205 5.312195 35.652954 14.76796c9.455811 9.455765 14.768005 22.280533 14.768005 35.653l0 201.67776c0 27.84674 -22.57428 50.42096 -50.42096 50.42096l-201.6778 0c-27.84671 0 -50.42096 -22.574219 -50.42096 -50.42096z" fill-rule="evenodd"/></g><path fill="#000000" d="m599.97754 262.42422c3.8652344 0.05407715 6.768982 0.9461365 8.711365 2.676239c1.9521484 1.7301025 2.9281616 4.176544 2.9281616 7.3393555c0 3.0276794 -1.0541382 5.415558 -3.1624146 7.163666c-2.1082764 1.7391052 -5.036499 2.6086426 -8.784546 2.6086426l-11.419922 0l0 -19.787903zm-22.839783 -8.271988l0 59.039352l11.112427 0l0 -22.747986l12.38623 0l12.825439 22.747986l11.903076 0l0 -0.52716064l-14.362732 -24.61322c3.6895142 -1.4327393 6.563965 -3.4782104 8.623474 -6.1364136c2.069275 -2.6672363 3.1038818 -5.974243 3.1038818 -9.92099c0 -5.7850037 -2.0057983 -10.204834 -6.017395 -13.259552c-4.0116577 -3.0546722 -9.70697 -4.582016 -17.085999 -4.582016z" fill-rule="evenodd"/><path stroke="#000000" stroke-width="2.0" stroke-linejoin="round" stroke-linecap="butt" d="m599.97754 262.42422c3.8652344 0.05407715 6.768982 0.9461365 8.711365 2.676239c1.9521484 1.7301025 2.9281616 4.176544 2.9281616 7.3393555c0 3.0276794 -1.0541382 5.415558 -3.1624146 7.163666c-2.1082764 1.7391052 -5.036499 2.6086426 -8.784546 2.6086426l-11.419922 0l0 -19.787903zm-22.839783 -8.271988l0 59.039352l11.112427 0l0 -22.747986l12.38623 0l12.825439 22.747986l11.903076 0l0 -0.52716064l-14.362732 -24.61322c3.6895142 -1.4327393 6.563965 -3.4782104 8.623474 -6.1364136c2.069275 -2.6672363 3.1038818 -5.974243 3.1038818 -9.92099c0 -5.7850037 -2.0057983 -10.204834 -6.017395 -13.259552c-4.0116577 -3.0546722 -9.70697 -4.582016 -17.085999 -4.582016z" fill-rule="evenodd"/></g></svg>